PathFileType	4	(X/Y/Z)	D:\TRACE\v60_Jaco2_6-2-23\JustArmDRS_Motion1_1-v60.trc
DataRate	CameraRate	NumFrames	NumMarkers	Units	OrigDataRate	OrigDataStartFrame	OrigNumFrames
100.00	100.00	      32	9	mm	100.00	1	      6844
Frame#	Time	front left toe			Front right toe			aft left toe			aft right toe			Arm			FL body			FR body			AL Body			AR Body			
		X1	Y1	Z1	X2	Y2	Z2	X3	Y3	Z3	X4	Y4	Z4	X5	Y5	Z5	X6	Y6	Z6	X7	Y7	Z7	X8	Y8	Z8	X9	Y9	Z9	

1	0.000	-200.30722	19.97199	-166.52838	207.01466	17.85142	-209.96947	-135.46068	16.52937	438.57126	267.24698	19.74767	427.83652	21.44890	1211.19763	-213.10254	-83.70907	577.01910	-314.32657	75.77245	576.61761	-329.25385	6.02557	580.92474	627.24487	162.40065	574.90741	613.31433	
2	0.010	-200.32895	19.96861	-166.52394	207.01967	17.84715	-209.95261	-135.50023	16.60711	438.53912	267.22531	19.71230	427.82581	21.43934	1211.18982	-213.14372	-83.70927	577.00104	-314.29910	75.85707	576.62433	-329.24371	6.07301	580.92896	627.23639	162.40588	574.91022	613.32391	
3	0.020	-200.34029	20.04144	-166.54506	207.05455	17.85937	-209.96762	-135.52502	16.58405	438.54709	267.23190	19.73110	427.83240	21.42369	1211.20032	-213.10216	-83.74394	577.02411	-314.31961	75.83183	576.56738	-329.24451	6.04986	580.93695	627.23419	162.38889	574.92340	613.29999	
4	0.030	-200.28497	20.02355	-166.52544	207.02351	17.83957	-209.96506	-135.48120	16.59332	438.55966	267.22733	19.69531	427.82703	21.45418	1211.20056	-213.11681	-83.72977	576.99976	-314.34863	75.86983	576.59882	-329.21814	6.08303	580.92548	627.21759	162.42165	574.92883	613.30872	
5	0.040	-200.30254	19.98225	-166.52649	207.03415	17.86566	-209.94099	-135.50838	16.57737	438.56824	267.20383	19.73769	427.83636	21.39729	1211.19409	-213.09741	-83.74995	577.00629	-314.34128	75.87557	576.60889	-329.21939	6.05207	580.92065	627.24341	162.37122	574.91943	613.30536	
6	0.050	-200.32008	19.97260	-166.51010	207.04572	17.85464	-209.94861	-135.51408	16.57205	438.53622	267.23181	19.72048	427.81955	21.44916	1211.18787	-213.12512	-83.75073	577.05164	-314.31131	75.83675	576.61359	-329.22705	6.03585	580.92957	627.24933	162.42854	574.90204	613.33533	
7	0.060	-200.29134	19.96340	-166.50714	207.02153	17.85780	-209.95888	-135.49591	16.55041	438.55975	267.23447	19.73990	427.79840	21.48267	1211.16980	-213.09595	-83.76709	577.04852	-314.30066	75.93286	576.54370	-329.20157	6.10154	580.91418	627.23456	162.40080	574.91077	613.30682	
8	0.070	-200.29866	19.96066	-166.54466	207.01817	17.85617	-209.96448	-135.49419	16.56585	438.55688	267.21384	19.71718	427.79471	21.50517	1211.19788	-213.10072	-83.73581	577.04205	-314.37695	75.88400	576.61591	-329.22177	6.08214	580.91058	627.24609	162.40515	574.89911	613.32593	
9	0.080	-200.30745	19.98206	-166.51865	207.03206	17.86040	-209.97861	-135.46284	16.55817	438.54791	267.20798	19.71358	427.82950	21.46245	1211.18982	-213.07877	-83.74845	577.00970	-314.32306	75.84882	576.58569	-329.23761	6.09070	580.91656	627.23468	162.39651	574.88849	613.31274	
10	0.090	-200.28069	19.99712	-166.55350	207.02963	17.87641	-209.94363	-135.46046	16.55275	438.57553	267.22073	19.72599	427.81531	21.40236	1211.18323	-213.12024	-83.72464	577.01532	-314.32031	75.89960	576.57617	-329.21555	6.06511	580.91620	627.24878	162.37662	574.87976	613.31659	
11	0.100	-200.33876	19.96725	-166.50967	207.04688	17.85917	-209.95219	-135.43384	16.52956	438.60083	267.22339	19.69666	427.82639	21.39886	1211.19470	-213.12549	-83.71843	577.01843	-314.33365	75.89772	576.59955	-329.20386	6.03243	580.89722	627.26245	162.38872	574.88123	613.31989	
12	0.110	-200.30089	19.99761	-166.54117	207.03761	17.87409	-209.95430	-135.46857	16.55019	438.59424	267.44958	19.58752	427.79025	21.37764	1211.16943	-213.11797	-83.75761	577.01093	-314.34424	75.76916	576.61523	-329.26038	6.05242	580.89392	627.22632	162.37646	574.86609	613.31653	
13	0.120	-200.30183	19.95880	-166.52846	207.03162	17.83542	-209.94081	-135.46510	16.55694	438.56711	267.21518	19.71183	427.80621	21.41554	1211.17651	-213.08926	-83.76819	577.02917	-314.29721	75.89305	576.59631	-329.21066	6.10583	580.89984	627.23804	162.41252	574.88794	613.33447	
14	0.130	-200.28622	19.94547	-166.51492	207.00818	17.83993	-209.94710	-135.47092	16.53202	438.57504	267.20972	19.74417	427.80438	21.44384	1211.17456	-213.11629	-83.76263	577.02679	-314.32074	75.86012	576.60175	-329.25949	6.11160	580.91711	627.24817	162.43506	574.90082	613.33008	
15	0.140	-200.25983	19.94663	-166.51529	207.11554	17.85240	-209.95247	-135.45422	16.54039	438.58478	267.23013	19.72812	427.80682	21.41234	1211.20044	-213.12880	-83.79928	577.04095	-314.32236	75.92727	576.62299	-329.19934	6.07799	580.91559	627.23022	162.41924	574.90704	613.32062	
16	0.150	-200.32843	19.94557	-166.49742	207.01169	17.83488	-209.96423	-135.47305	16.54047	438.59085	267.44833	19.62131	427.81342	21.39111	1211.21509	-213.11169	-83.81362	577.05951	-314.32846	75.90130	576.59467	-329.22171	6.08319	580.89972	627.23987	162.41435	574.89331	613.32385	
17	0.160	-200.30247	19.95440	-166.50464	207.03596	17.86129	-209.96545	-135.47437	16.55352	438.57150	267.48587	19.60185	427.78647	21.47572	1211.18811	-213.12312	-83.77342	577.02289	-314.32733	75.90472	576.57678	-329.19101	6.07655	580.91846	627.26007	162.44139	574.89728	613.32428	
18	0.170	-200.34232	19.98098	-166.53261	207.02985	17.85843	-209.95462	-135.48657	16.55844	438.57913	267.19424	19.69209	427.83206	21.44031	1211.18774	-213.13066	-83.74086	577.00494	-314.31241	75.77027	576.63135	-329.23892	6.02753	580.89740	627.23761	162.40520	574.90582	613.32678	
19	0.180	-200.27602	20.01500	-166.54257	206.99562	17.82711	-209.96136	-135.52573	16.60970	438.53998	267.46152	19.61246	427.77820	21.43491	1211.20911	-213.10709	-83.77231	577.03851	-314.31067	75.97346	576.59344	-329.17816	6.10910	580.92804	627.24060	162.41571	574.90356	613.32990	
20	0.190	-200.30457	20.00297	-166.54768	207.04318	17.82259	-209.96335	-135.52574	16.56125	438.57745	267.19928	19.69525	427.78799	21.41945	1211.20056	-213.14757	-83.71326	576.98877	-314.31223	75.86819	576.61322	-329.23798	6.09160	580.92340	627.23700	162.41331	574.92145	613.31696	
21	0.200	-200.33754	20.01290	-166.48270	207.04114	17.84083	-209.98451	-135.47847	16.59395	438.56192	267.48206	19.58613	427.80090	21.41973	1211.19373	-213.09637	-83.72787	577.00311	-314.35083	75.78951	576.57166	-329.27127	6.02674	580.93451	627.23718	162.40253	574.91278	613.31256	
22	0.210	-200.32310	19.99241	-166.53136	206.96518	17.79488	-210.00174	-135.43904	16.53338	438.57916	267.45959	19.58601	427.77142	21.40573	1211.18750	-213.11394	-83.78057	577.05756	-314.31122	75.84749	576.58173	-329.24051	6.03899	580.92822	627.23181	162.37849	574.90863	613.31641	
23	0.220	-200.28461	19.97586	-166.48476	207.01648	17.84169	-209.97787	-135.48628	16.55853	438.59354	267.23914	19.67149	427.82898	21.45341	1211.19067	-213.09808	-83.74490	577.00110	-314.34689	75.82280	576.58990	-329.26273	6.05398	580.91309	627.23627	162.39285	574.89581	613.32721	
24	0.230	-200.29730	19.96964	-166.52663	206.99757	17.82679	-209.98093	-135.48776	16.55129	438.59534	267.21921	19.69124	427.81836	21.40037	1211.19434	-213.13005	-83.73607	577.01251	-314.34982	75.83630	576.58521	-329.25641	5.99257	580.92023	627.25610	162.37576	574.88843	613.32263	
25	0.240	-200.29576	19.97295	-166.49033	207.00694	17.83092	-209.96513	-135.47502	16.53564	438.58011	267.22250	19.70934	427.83844	21.43685	1211.16284	-213.09283	-83.75206	577.01221	-314.35809	75.87410	576.57068	-329.24490	6.03580	580.90417	627.24780	162.42879	574.89288	613.31537	
26	0.250	-200.28284	19.94404	-166.51126	207.01495	17.82592	-209.95786	-135.48529	16.55747	438.56390	267.20587	19.69293	427.79709	21.40691	1211.20544	-213.13045	-83.72292	577.02594	-314.35474	75.77392	576.57947	-329.26971	6.07729	580.88617	627.21826	162.39107	574.90015	613.31018	
27	0.260	-200.27785	20.00072	-166.56993	207.04971	17.83897	-209.96379	-135.50699	16.58378	438.56119	267.22284	19.67183	427.82898	21.43598	1211.19958	-213.11002	-83.75864	577.04877	-314.31082	75.91673	576.59149	-329.22681	6.06522	580.92078	627.24628	162.40149	574.90271	613.31683	
28	0.270	-200.28949	19.98447	-166.51401	207.01303	17.86115	-209.97055	-135.46892	16.53462	438.55307	267.45465	19.55160	427.80023	21.46757	1211.19043	-213.11336	-83.76279	577.02832	-314.30203	75.92024	576.56842	-329.23325	6.10455	580.92169	627.23096	162.39525	574.90442	613.31128	
29	0.280	-200.29688	19.96169	-166.50583	206.95287	17.85746	-209.97139	-135.44547	16.54343	438.58167	267.24695	19.69172	427.85129	21.38204	1211.18420	-213.12862	-83.70649	577.01050	-314.33005	75.77714	576.60034	-329.25610	6.08327	580.90155	627.23840	162.39897	574.89203	613.32306	
30	0.290	-200.33446	19.97288	-166.51326	206.95668	17.85281	-209.97676	-135.46495	16.53522	438.57999	267.47699	19.55542	427.76123	21.39529	1211.17749	-213.11758	-83.63648	576.95221	-314.32983	75.91248	576.58447	-329.21823	6.07983	580.89862	627.24371	162.37793	574.88531	613.30872	
31	0.300	-200.36504	19.99895	-166.50195	207.00607	17.83501	-209.97533	-135.44304	16.54547	438.58218	267.27170	19.66944	427.82556	21.39208	1211.18884	-213.11583	-83.73462	577.02991	-314.31448	75.82915	576.57233	-329.25064	6.02255	580.90778	627.24213	162.37935	574.87207	613.32776	
32	0.310	-200.35101	19.95146	-166.48456	207.01309	17.86062	-209.96214	-135.46368	16.53640	438.56747	267.22736	19.70739	427.83136	21.39356	1211.18176	-213.11699	-83.75246	577.03992	-314.34323	75.87531	576.57861	-329.20874	6.04711	580.91180	627.24194	162.38611	574.87433	613.33356	
